Coordinates
version=1
nRows=8
nColumns=36
inDegrees=yes

Units are S.I. units (second, meters, Newtons, ...)
If the header above contains a line with 'inDegrees', this indicates whether rotational values are in degrees (yes) or radians (no).

endheader
time	pelvis_tilt	pelvis_list	pelvis_rotation	pelvis_tx	pelvis_ty	pelvis_tz	hip_flexion_r	hip_adduction_r	hip_rotation_r	knee_angle_r	knee_angle_r_beta	ankle_angle_r	subtalar_angle_r	mtp_angle_r	hip_flexion_l	hip_adduction_l	hip_rotation_l	knee_angle_l	knee_angle_l_beta	ankle_angle_l	subtalar_angle_l	mtp_angle_l	lumbar_extension	lumbar_bending	lumbar_rotation	arm_flex_r	arm_add_r	arm_rot_r	elbow_flex_r	pro_sup_r	arm_flex_l	arm_add_l	arm_rot_l	elbow_flex_l	pro_sup_l
     44.58333330	      8.41512205	      0.54120771	    178.94942511	      0.22360223	      0.93204499	      0.69950587	     34.79802204	      1.04057421	     10.66846109	     23.17186119	      0.40442527	     -6.36124247	     -2.47883921	     -7.49999987	     15.22059721	     -1.24660100	      3.74645035	     64.87494486	      1.13228139	     -2.30252463	    -13.59090525	     -7.49999987	    -12.72936774	      1.70371488	      0.17969789	      2.00159728	    -11.95743394	    -17.08659864	     22.25226307	     88.04482996	     17.47170477	    -11.16703301	      8.68757305	     17.98019434	     87.16275550
     44.60000000	      7.92321474	      0.83156077	    178.27146989	      0.21789779	      0.93393394	      0.69451286	     33.99943479	      1.78679971	      9.65623660	     25.92137213	      0.45241329	     -4.76989204	     -3.65397475	     -7.49999987	     16.46053196	     -2.13139554	      3.42455067	     69.15851926	      1.20704387	     -5.86257213	    -13.11939078	     -7.49999987	    -12.65457239	      1.81813403	      0.24052730	      3.75927370	    -12.32744404	    -13.89401095	     19.85686367	     88.59520382	     16.60045956	    -11.07818403	      7.61146794	     16.62621712	     88.23337343
     44.61666670	      7.13618676	      1.34391848	    177.60681766	      0.20989846	      0.93483397	      0.68951851	     32.68945678	      2.70220651	      8.55834500	     29.50194996	      0.51490616	     -2.51008508	     -5.69104937	     -7.49999987	     17.61211630	     -3.44199537	      2.97912319	     73.04756599	      1.27492054	     -8.49581790	    -12.19178792	     -7.49999987	    -13.06647815	      2.13134994	      1.03064697	      4.30623631	    -12.37150130	    -13.64484956	     19.91460137	     88.54300965	     15.63022022	    -10.78800480	      7.46268666	     16.48238817	     88.22862587
     44.63333330	      6.76153203	      1.76879830	    177.17299075	      0.20453986	      0.93548695	      0.68665735	     31.75487725	      3.32950155	      7.48345599	     33.31226275	      0.58140867	     -0.26097063	     -8.65993871	     -7.49999987	     19.75607523	     -4.70191989	      2.59490710	     76.39725432	      1.33338363	     -9.96223972	    -11.51136905	     -7.49999987	    -12.89566035	      2.36627711	      1.05393457	      5.30791557	    -12.74511355	     -9.68484769	     18.64250074	     88.37461449	     14.11728680	    -10.36403048	      4.19576857	     16.15888778	     89.59795031
     44.65000000	      6.26585846	      1.80741462	    177.10056387	      0.20349901	      0.93782739	      0.68479677	     30.58303056	      3.35572487	      6.60801469	     36.27345688	      0.63309125	      1.01908771	    -12.32851669	     -7.49999987	     22.11856518	     -5.40516609	      2.38908609	     78.53224324	      1.37064621	    -10.41120100	    -11.71642250	     -7.49999987	    -13.32646208	      2.17035619	      1.58920594	      5.49521625	    -12.66178547	     -9.63082067	     18.93965109	     86.33499406	     13.16855576	    -10.19618507	      4.05759512	     16.41844868	     88.27119131
     44.66666670	      5.77940893	      1.27271808	    177.61519633	      0.20477059	      0.94101106	      0.68212901	     29.37226074	      2.61914387	      5.78677174	     37.84342704	      0.66049240	      0.74576894	    -16.26468402	     -7.49999987	     24.42672702	     -5.33865879	      2.27694146	     79.11335807	      1.38078858	    -10.43924069	    -12.69033296	     -7.49999987	    -13.99336219	      1.31065012	      1.64187040	      5.51736832	    -12.31569518	     -9.61788014	     20.05129133	     84.02605424	     12.38956674	    -10.35699529	      4.04929520	     17.32275539	     86.20768498
     44.68333330	      5.43175436	      0.40223420	    178.44857527	      0.20661364	      0.94398738	      0.67821286	     28.40017198	      1.66093469	      5.24854853	     38.14710861	      0.66579265	     -0.30373489	    -19.58279738	     -7.49999987	     26.48610633	     -5.10802264	      1.76950553	     78.37346329	      1.36787498	     -9.86616280	    -13.19955884	     -7.49999987	    -14.49442912	     -0.12909517	      2.03374814	      5.13668774	    -11.79007058	    -10.14676756	     21.58877906	     85.02092998	     12.76988967	    -10.63247840	      4.75585034	     16.87552071	     90.29679975
     44.70000000	      5.19640757	     -0.50018019	    179.82777499	      0.20846586	      0.94732745	      0.67563391	     27.53567296	      0.59551562	      4.54919840	     37.68042454	      0.65764747	     -1.25093722	    -21.32262895	     -7.49999987	     28.41863755	     -4.83041222	      1.16945065	     76.76032489	      1.33972040	     -9.34907204	    -14.18159470	     -7.49999987	    -14.93585720	     -1.57383158	      1.63280450	      5.40215581	    -11.03166568	    -10.25243246	     22.34359192	     84.94308119	     13.03645602	    -11.03234998	      4.63838734	     16.97712892	     90.29052302
